<svg width="140" height="92" viewBox="0 0 140 92" fill="none" xmlns="http://www.w3.org/2000/svg">
<path d="M4.0625 64.6875V61.1719H20.0781V64.6875H4.0625ZM4.0625 72.5V68.9844H20.0781V72.5H4.0625ZM40.5225 70.625C37.8141 70.625 35.4378 69.9805 33.3936 68.6914C31.3623 67.4023 29.7738 65.599 28.6279 63.2812C27.4951 60.9635 26.9287 58.2552 26.9287 55.1562C26.9287 52.0312 27.4951 49.3034 28.6279 46.9727C29.7738 44.6419 31.3623 42.832 33.3936 41.543C35.4378 40.2539 37.8141 39.6094 40.5225 39.6094C43.2308 39.6094 45.6006 40.2539 47.6318 41.543C49.6761 42.832 51.2646 44.6419 52.3975 46.9727C53.5433 49.3034 54.1162 52.0312 54.1162 55.1562C54.1162 58.2552 53.5433 60.9635 52.3975 63.2812C51.2646 65.599 49.6761 67.4023 47.6318 68.6914C45.6006 69.9805 43.2308 70.625 40.5225 70.625ZM40.5225 66.4844C42.5798 66.4844 44.2725 65.957 45.6006 64.9023C46.9287 63.8477 47.9118 62.4609 48.5498 60.7422C49.1878 59.0234 49.5068 57.1615 49.5068 55.1562C49.5068 53.151 49.1878 51.2826 48.5498 49.5508C47.9118 47.819 46.9287 46.4193 45.6006 45.3516C44.2725 44.2839 42.5798 43.75 40.5225 43.75C38.4652 43.75 36.7725 44.2839 35.4443 45.3516C34.1162 46.4193 33.1331 47.819 32.4951 49.5508C31.8571 51.2826 31.5381 53.151 31.5381 55.1562C31.5381 57.1615 31.8571 59.0234 32.4951 60.7422C33.1331 62.4609 34.1162 63.8477 35.4443 64.9023C36.7725 65.957 38.4652 66.4844 40.5225 66.4844ZM81.8555 70V74.2969H56.8555V70H81.8555ZM98.208 70.625C95.4997 70.625 93.1234 69.9805 91.0791 68.6914C89.0479 67.4023 87.4593 65.599 86.3135 63.2812C85.1807 60.9635 84.6143 58.2552 84.6143 55.1562C84.6143 52.0312 85.1807 49.3034 86.3135 46.9727C87.4593 44.6419 89.0479 42.832 91.0791 41.543C93.1234 40.2539 95.4997 39.6094 98.208 39.6094C100.916 39.6094 103.286 40.2539 105.317 41.543C107.362 42.832 108.95 44.6419 110.083 46.9727C111.229 49.3034 111.802 52.0312 111.802 55.1562C111.802 58.2552 111.229 60.9635 110.083 63.2812C108.95 65.599 107.362 67.4023 105.317 68.6914C103.286 69.9805 100.916 70.625 98.208 70.625ZM98.208 66.4844C100.265 66.4844 101.958 65.957 103.286 64.9023C104.614 63.8477 105.597 62.4609 106.235 60.7422C106.873 59.0234 107.192 57.1615 107.192 55.1562C107.192 53.151 106.873 51.2826 106.235 49.5508C105.597 47.819 104.614 46.4193 103.286 45.3516C101.958 44.2839 100.265 43.75 98.208 43.75C96.1507 43.75 94.458 44.2839 93.1299 45.3516C91.8018 46.4193 90.8187 47.819 90.1807 49.5508C89.5426 51.2826 89.2236 53.151 89.2236 55.1562C89.2236 57.1615 89.5426 59.0234 90.1807 60.7422C90.8187 62.4609 91.8018 63.8477 93.1299 64.9023C94.458 65.957 96.1507 66.4844 98.208 66.4844ZM118.682 64.6875V61.1719H134.697V64.6875H118.682ZM118.682 72.5V68.9844H134.697V72.5H118.682Z" fill="#FB4C81"/>
<path d="M40.1875 17.4375H41.5938V19.3906H40.1875V17.4375ZM30.1875 32.125L38.2344 15.25H43.5469L51.5938 32.125H46.9844L40.6563 18.6094H41.125L34.875 32.125H30.1875ZM96.9063 17.4375H98.3125V19.3906H96.9063V17.4375ZM86.9062 32.125L94.9531 15.25H100.266L108.313 32.125H103.703L97.375 18.6094H97.8438L91.5938 32.125H86.9062Z" fill="#FB4C81"/>
<line x1="4" y1="55.25" x2="20" y2="55.25" stroke="#FB4C81" stroke-width="3.5"/>
<line x1="119" y1="55.25" x2="135" y2="55.25" stroke="#FB4C81" stroke-width="3.5"/>
</svg>
