<svg width="47" height="36" viewBox="0 0 47 36" fill="none" xmlns="http://www.w3.org/2000/svg">
<path fill-rule="evenodd" clip-rule="evenodd" d="M32 8H6C2.68629 8 0 10.6863 0 14V30C0 33.3137 2.68629 36 6 36H37C40.3137 36 43 33.3137 43 30V22H39V30C39 31.1046 38.1046 32 37 32H6C4.89543 32 4 31.1046 4 30V14C4 12.8954 4.89543 12 6 12H32V8Z" fill="#FB4C81"/>
<line x1="41" y1="22" x2="41" y2="20" stroke="#FB4C81" stroke-width="4" stroke-linecap="round"/>
<path d="M31.6845 5.59138C31.6845 4.82158 32.5178 4.34046 33.1845 4.72536L41.7624 9.6778C42.429 10.0627 42.429 11.025 41.7624 11.4099L33.1845 16.3623C32.5178 16.7472 31.6845 16.2661 31.6845 15.4963L31.6845 5.59138Z" fill="#FB4C81"/>
</svg>
