<svg width="1124" height="55" viewBox="0 0 1124 55" fill="none" xmlns="http://www.w3.org/2000/svg">
<line x1="1094" y1="39" x2="1122" y2="39" stroke="#FB4C81" stroke-width="4" stroke-linecap="round"/>
<line x1="1094" y1="39" x2="1122" y2="39" stroke="#FB4C81" stroke-width="4" stroke-linecap="round"/>
<line x1="1094" y1="39" x2="1122" y2="39" stroke="#FB4C81" stroke-width="4" stroke-linecap="round"/>
<line x1="1094" y1="39" x2="1122" y2="39" stroke="#FB4C81" stroke-width="4" stroke-linecap="round"/>
<line x1="1093" y1="31" x2="1122" y2="31" stroke="#FB4C81" stroke-width="4" stroke-linecap="round"/>
<line x1="1093" y1="31" x2="1122" y2="31" stroke="#FB4C81" stroke-width="4" stroke-linecap="round"/>
<line x1="1093" y1="31" x2="1122" y2="31" stroke="#FB4C81" stroke-width="4" stroke-linecap="round"/>
<line x1="1093" y1="31" x2="1122" y2="31" stroke="#FB4C81" stroke-width="4" stroke-linecap="round"/>
<line x1="1083" y1="23" x2="1122" y2="23" stroke="#FB4C81" stroke-width="4" stroke-linecap="round"/>
<line x1="1083" y1="23" x2="1122" y2="23" stroke="#FB4C81" stroke-width="4" stroke-linecap="round"/>
<line x1="1083" y1="23" x2="1122" y2="23" stroke="#FB4C81" stroke-width="4" stroke-linecap="round"/>
<line x1="1083" y1="23" x2="1122" y2="23" stroke="#FB4C81" stroke-width="4" stroke-linecap="round"/>
<line x1="1083" y1="15" x2="1122" y2="15" stroke="#FB4C81" stroke-width="4" stroke-linecap="round"/>
<line x1="1083" y1="15" x2="1122" y2="15" stroke="#FB4C81" stroke-width="4" stroke-linecap="round"/>
<line x1="1083" y1="15" x2="1122" y2="15" stroke="#FB4C81" stroke-width="4" stroke-linecap="round"/>
<line x1="1083" y1="15" x2="1122" y2="15" stroke="#FB4C81" stroke-width="4" stroke-linecap="round"/>
<path d="M1080.68 30.5914C1080.68 29.8216 1081.52 29.3404 1082.18 29.7253L1090.76 34.6778C1091.43 35.0627 1091.43 36.0249 1090.76 36.4098L1082.18 41.3623C1081.52 41.7472 1080.68 41.266 1080.68 40.4962L1080.68 30.5914Z" fill="#FB4C81"/>
<rect x="1005" y="15" width="39" height="24" rx="4" stroke="#FB4C81" stroke-width="4"/>
<rect x="1035" y="12" width="12" height="15" fill="#0D1117"/>
<line x1="1044" y1="27" x2="1044" y2="25" stroke="#FB4C81" stroke-width="4" stroke-linecap="round"/>
<path d="M1034.68 10.5914C1034.68 9.82155 1035.52 9.34043 1036.18 9.72533L1044.76 14.6778C1045.43 15.0627 1045.43 16.0249 1044.76 16.4098L1036.18 21.3623C1035.52 21.7472 1034.68 21.266 1034.68 20.4962L1034.68 10.5914Z" fill="#FB4C81"/>
<path d="M958 39H951.647C949.299 39 947.034 38.131 945.289 36.5605V36.5605C943.801 35.2211 942.774 33.4459 942.355 31.4882L940.419 22.4543C940.143 21.1657 939.6 19.9494 938.824 18.8836V18.8836C937.05 16.4436 934.215 15 931.198 15H925" stroke="#FB4C81" stroke-width="4" stroke-linecap="round" stroke-linejoin="round"/>
<path d="M958 15H951.647C949.299 15 947.034 15.869 945.289 17.4395V17.4395C943.801 18.7789 942.774 20.5541 942.355 22.5118L940.419 31.5457C940.143 32.8343 939.6 34.0506 938.824 35.1164V35.1164C937.05 37.5564 934.215 39 931.198 39H925" stroke="#0D1117" stroke-width="10" stroke-linecap="round" stroke-linejoin="round"/>
<path d="M958 15H951.647C949.299 15 947.034 15.869 945.289 17.4395V17.4395C943.801 18.7789 942.774 20.5541 942.355 22.5118L940.419 31.5457C940.143 32.8343 939.6 34.0506 938.824 35.1164V35.1164C937.05 37.5564 934.215 39 931.198 39H925" stroke="#FB4C81" stroke-width="4" stroke-linecap="round" stroke-linejoin="round"/>
<path d="M954.684 10.5914C954.684 9.82155 955.518 9.34043 956.184 9.72533L964.762 14.6778C965.429 15.0627 965.429 16.0249 964.762 16.4098L956.184 21.3623C955.518 21.7472 954.684 21.266 954.684 20.4962L954.684 10.5914Z" fill="#FB4C81"/>
<path d="M954.684 33.5914C954.684 32.8216 955.518 32.3404 956.184 32.7253L964.762 37.6778C965.429 38.0627 965.429 39.0249 964.762 39.4098L956.184 44.3623C955.518 44.7472 954.684 44.266 954.684 43.4962L954.684 33.5914Z" fill="#FB4C81"/>
<path d="M107.726 13.5088C107.726 11.9692 109.393 11.007 110.726 11.7768L134.86 25.7106C136.194 26.4804 136.194 28.4049 134.86 29.1747L110.726 43.1086C109.393 43.8784 107.726 42.9161 107.726 41.3765L107.726 13.5088Z" fill="#FB4C81"/>
<rect x="132" y="11" width="7" height="33" rx="3.5" fill="#FB4C81"/>
<path d="M62.5431 13.5089C62.5431 11.9693 64.2097 11.007 65.5431 11.7768L89.6772 25.7107C91.0105 26.4805 91.0105 28.405 89.6772 29.1748L65.5431 43.1087C64.2097 43.8785 62.5431 42.9162 62.5431 41.3766L62.5431 13.5089Z" fill="#FB4C81"/>
<rect x="62" y="11" width="7" height="33" rx="3.5" fill="#FB4C81"/>
<rect x="77" y="11" width="7" height="33" rx="3.5" fill="#FB4C81"/>
<path d="M38.1899 41.3765C38.1899 42.9161 36.5233 43.8784 35.1899 43.1086L11.0558 29.1747C9.72246 28.4049 9.72246 26.4804 11.0558 25.7106L35.1899 11.7768C36.5233 11.007 38.1899 11.9692 38.1899 13.5088L38.1899 41.3765Z" fill="#FB4C81"/>
<rect x="7" y="11" width="7" height="33" rx="3.5" fill="#FB4C81"/>
</svg>
