<svg width="55" height="55" viewBox="0 0 55 55" fill="none" xmlns="http://www.w3.org/2000/svg">
<line x1="19.9999" y1="39" x2="47.9999" y2="39" stroke="#FB4C81" stroke-width="4" stroke-linecap="round"/>
<line x1="19.9999" y1="39" x2="47.9999" y2="39" stroke="#FB4C81" stroke-width="4" stroke-linecap="round"/>
<line x1="19.9999" y1="39" x2="47.9999" y2="39" stroke="#FB4C81" stroke-width="4" stroke-linecap="round"/>
<line x1="19.9999" y1="39" x2="47.9999" y2="39" stroke="#FB4C81" stroke-width="4" stroke-linecap="round"/>
<line x1="18.9999" y1="31" x2="47.9999" y2="31" stroke="#FB4C81" stroke-width="4" stroke-linecap="round"/>
<line x1="18.9999" y1="31" x2="47.9999" y2="31" stroke="#FB4C81" stroke-width="4" stroke-linecap="round"/>
<line x1="18.9999" y1="31" x2="47.9999" y2="31" stroke="#FB4C81" stroke-width="4" stroke-linecap="round"/>
<line x1="18.9999" y1="31" x2="47.9999" y2="31" stroke="#FB4C81" stroke-width="4" stroke-linecap="round"/>
<line x1="8.99994" y1="23" x2="47.9999" y2="23" stroke="#FB4C81" stroke-width="4" stroke-linecap="round"/>
<line x1="8.99994" y1="23" x2="47.9999" y2="23" stroke="#FB4C81" stroke-width="4" stroke-linecap="round"/>
<line x1="8.99994" y1="23" x2="47.9999" y2="23" stroke="#FB4C81" stroke-width="4" stroke-linecap="round"/>
<line x1="8.99994" y1="23" x2="47.9999" y2="23" stroke="#FB4C81" stroke-width="4" stroke-linecap="round"/>
<line x1="8.99994" y1="15" x2="47.9999" y2="15" stroke="#FB4C81" stroke-width="4" stroke-linecap="round"/>
<line x1="8.99994" y1="15" x2="47.9999" y2="15" stroke="#FB4C81" stroke-width="4" stroke-linecap="round"/>
<line x1="8.99994" y1="15" x2="47.9999" y2="15" stroke="#FB4C81" stroke-width="4" stroke-linecap="round"/>
<line x1="8.99994" y1="15" x2="47.9999" y2="15" stroke="#FB4C81" stroke-width="4" stroke-linecap="round"/>
<path d="M6.68443 30.5914C6.68443 29.8216 7.51777 29.3404 8.18443 29.7253L16.7623 34.6778C17.429 35.0627 17.429 36.0249 16.7623 36.4098L8.18443 41.3623C7.51777 41.7472 6.68443 41.266 6.68443 40.4962L6.68443 30.5914Z" fill="#FB4C81"/>
</svg>
