<svg width="50" height="34" viewBox="0 0 50 34" fill="none" xmlns="http://www.w3.org/2000/svg">
<line x1="20" y1="26" x2="48" y2="26" stroke="#FB4C81" stroke-width="4" stroke-linecap="round"/>
<line x1="20" y1="26" x2="48" y2="26" stroke="#FB4C81" stroke-width="4" stroke-linecap="round"/>
<line x1="20" y1="26" x2="48" y2="26" stroke="#FB4C81" stroke-width="4" stroke-linecap="round"/>
<line x1="20" y1="26" x2="48" y2="26" stroke="#FB4C81" stroke-width="4" stroke-linecap="round"/>
<line x1="19" y1="18" x2="48" y2="18" stroke="#FB4C81" stroke-width="4" stroke-linecap="round"/>
<line x1="19" y1="18" x2="48" y2="18" stroke="#FB4C81" stroke-width="4" stroke-linecap="round"/>
<line x1="19" y1="18" x2="48" y2="18" stroke="#FB4C81" stroke-width="4" stroke-linecap="round"/>
<line x1="19" y1="18" x2="48" y2="18" stroke="#FB4C81" stroke-width="4" stroke-linecap="round"/>
<line x1="9" y1="10" x2="48" y2="10" stroke="#FB4C81" stroke-width="4" stroke-linecap="round"/>
<line x1="9" y1="10" x2="48" y2="10" stroke="#FB4C81" stroke-width="4" stroke-linecap="round"/>
<line x1="9" y1="10" x2="48" y2="10" stroke="#FB4C81" stroke-width="4" stroke-linecap="round"/>
<line x1="9" y1="10" x2="48" y2="10" stroke="#FB4C81" stroke-width="4" stroke-linecap="round"/>
<line x1="9" y1="2" x2="48" y2="2" stroke="#FB4C81" stroke-width="4" stroke-linecap="round"/>
<line x1="9" y1="2" x2="48" y2="2" stroke="#FB4C81" stroke-width="4" stroke-linecap="round"/>
<line x1="9" y1="2" x2="48" y2="2" stroke="#FB4C81" stroke-width="4" stroke-linecap="round"/>
<line x1="9" y1="2" x2="48" y2="2" stroke="#FB4C81" stroke-width="4" stroke-linecap="round"/>
<path d="M6.68449 17.5914C6.68449 16.8216 7.51783 16.3404 8.18449 16.7253L16.7624 21.6778C17.429 22.0627 17.429 23.0249 16.7624 23.4098L8.18449 28.3623C7.51783 28.7472 6.68449 28.266 6.68449 27.4962L6.68449 17.5914Z" fill="#FB4C81"/>
</svg>
