<svg width="47" height="45" viewBox="0 0 47 45" fill="none" xmlns="http://www.w3.org/2000/svg">
<path fill-rule="evenodd" clip-rule="evenodd" d="M20.3065 32.4192C20.5127 32.6362 20.7278 32.8458 20.9516 33.0471C23.0638 34.9481 25.8049 36 28.6466 36H35C36.1046 36 37 35.1046 37 34C37 32.8954 36.1046 32 35 32H28.6466C26.7931 32 25.0051 31.3139 23.6274 30.0739C23.039 29.5444 22.5419 28.9285 22.1506 28.2514C21.7605 29.7298 21.1379 31.1366 20.3065 32.4192ZM16.502 11.5756C15.6705 12.8494 15.0412 14.2514 14.6425 15.7321C14.5098 15.5009 14.3644 15.2765 14.207 15.06C12.8088 13.1374 10.5751 12 8.19792 12H2C0.89543 12 0 11.1046 0 10C0 8.89543 0.89543 8 2 8H8.19792C11.3606 8 14.3581 9.30875 16.502 11.5756Z" fill="#FB4C81"/>
<path d="M35 10H28.6466C26.299 10 24.0345 10.869 22.2895 12.4395V12.4395C20.8013 13.7789 19.7741 15.5541 19.3546 17.5118L17.4188 26.5457C17.1427 27.8343 16.5995 29.0506 15.8244 30.1164V30.1164C14.0499 32.5564 11.215 34 8.19792 34H2" stroke="#FB4C81" stroke-width="4" stroke-linecap="round" stroke-linejoin="round"/>
<path d="M31.6845 5.59135C31.6845 4.82155 32.5178 4.34043 33.1845 4.72533L41.7624 9.67777C42.429 10.0627 42.429 11.0249 41.7624 11.4098L33.1845 16.3623C32.5178 16.7472 31.6845 16.266 31.6845 15.4962L31.6845 5.59135Z" fill="#FB4C81"/>
<path d="M31.6845 28.5914C31.6845 27.8216 32.5178 27.3404 33.1845 27.7253L41.7624 32.6778C42.429 33.0627 42.429 34.0249 41.7624 34.4098L33.1845 39.3623C32.5178 39.7472 31.6845 39.266 31.6845 38.4962L31.6845 28.5914Z" fill="#FB4C81"/>
</svg>
