<svg width="55" height="55" viewBox="0 0 55 55" fill="none" xmlns="http://www.w3.org/2000/svg">
<path fill-rule="evenodd" clip-rule="evenodd" d="M27.3065 37.4192C27.5127 37.6362 27.7278 37.8458 27.9516 38.0471C30.0638 39.9481 32.8049 41 35.6466 41H42C43.1046 41 44 40.1046 44 39C44 37.8954 43.1046 37 42 37H35.6466C33.7931 37 32.0051 36.3139 30.6274 35.0739C30.039 34.5444 29.5419 33.9285 29.1506 33.2514C28.7605 34.7298 28.1379 36.1366 27.3065 37.4192ZM23.502 16.5756C22.6705 17.8494 22.0412 19.2514 21.6425 20.7321C21.5098 20.5009 21.3644 20.2765 21.207 20.06C19.8088 18.1374 17.5751 17 15.1979 17H9C7.89543 17 7 16.1046 7 15C7 13.8954 7.89543 13 9 13H15.1979C18.3606 13 21.3581 14.3087 23.502 16.5756Z" fill="#FB4C81"/>
<path d="M42 15H35.6466C33.299 15 31.0345 15.869 29.2895 17.4395V17.4395C27.8013 18.7789 26.7741 20.5541 26.3546 22.5118L24.4188 31.5457C24.1427 32.8343 23.5995 34.0506 22.8244 35.1164V35.1164C21.0499 37.5564 18.215 39 15.1979 39H9" stroke="#FB4C81" stroke-width="4" stroke-linecap="round" stroke-linejoin="round"/>
<path d="M38.6845 10.5914C38.6845 9.82155 39.5178 9.34043 40.1845 9.72533L48.7624 14.6778C49.429 15.0627 49.429 16.0249 48.7624 16.4098L40.1845 21.3623C39.5178 21.7472 38.6845 21.266 38.6845 20.4962L38.6845 10.5914Z" fill="#FB4C81"/>
<path d="M38.6845 33.5914C38.6845 32.8216 39.5178 32.3404 40.1845 32.7253L48.7624 37.6778C49.429 38.0627 49.429 39.0249 48.7624 39.4098L40.1845 44.3623C39.5178 44.7472 38.6845 44.266 38.6845 43.4962L38.6845 33.5914Z" fill="#FB4C81"/>
</svg>
