<svg width="28" height="26" viewBox="0 0 28 26" fill="none" xmlns="http://www.w3.org/2000/svg">
<path d="M12.1611 2.15398L3.92578 7.81574C3.38307 8.18885 3.05884 8.80523 3.05884 9.46383V17.2444C3.05884 17.934 3.41408 18.575 3.99884 18.9404L12.2341 24.0875C13.5662 24.9201 15.2941 23.9624 15.2941 22.3915V3.80206C15.2941 2.1917 13.4881 1.24166 12.1611 2.15398Z" fill="#89929B"/>
<rect y="7.64706" width="6.88235" height="11.4706" rx="2" fill="#89929B"/>
<mask id="path-3-inside-1_21_116" fill="white">
<path d="M17.5882 7.64706C18.2912 7.64706 18.9873 7.78552 19.6367 8.05453C20.2862 8.32354 20.8763 8.71784 21.3733 9.21491C21.8704 9.71197 22.2647 10.3021 22.5337 10.9515C22.8027 11.601 22.9412 12.297 22.9412 13C22.9412 13.703 22.8027 14.399 22.5337 15.0485C22.2647 15.6979 21.8704 16.288 21.3733 16.7851C20.8763 17.2822 20.2862 17.6765 19.6367 17.9455C18.9873 18.2145 18.2912 18.3529 17.5882 18.3529L17.5882 16.2118C18.01 16.2118 18.4276 16.1287 18.8173 15.9673C19.207 15.8059 19.5611 15.5693 19.8593 15.2711C20.1575 14.9728 20.3941 14.6188 20.5555 14.2291C20.7169 13.8394 20.8 13.4218 20.8 13C20.8 12.5782 20.7169 12.1606 20.5555 11.7709C20.3941 11.3812 20.1575 11.0272 19.8593 10.7289C19.5611 10.4307 19.207 10.1941 18.8173 10.0327C18.4277 9.87132 18.01 9.78824 17.5882 9.78824V7.64706Z"/>
</mask>
<path d="M17.5882 7.64706C18.2912 7.64706 18.9873 7.78552 19.6367 8.05453C20.2862 8.32354 20.8763 8.71784 21.3733 9.21491C21.8704 9.71197 22.2647 10.3021 22.5337 10.9515C22.8027 11.601 22.9412 12.297 22.9412 13C22.9412 13.703 22.8027 14.399 22.5337 15.0485C22.2647 15.6979 21.8704 16.288 21.3733 16.7851C20.8763 17.2822 20.2862 17.6765 19.6367 17.9455C18.9873 18.2145 18.2912 18.3529 17.5882 18.3529L17.5882 16.2118C18.01 16.2118 18.4276 16.1287 18.8173 15.9673C19.207 15.8059 19.5611 15.5693 19.8593 15.2711C20.1575 14.9728 20.3941 14.6188 20.5555 14.2291C20.7169 13.8394 20.8 13.4218 20.8 13C20.8 12.5782 20.7169 12.1606 20.5555 11.7709C20.3941 11.3812 20.1575 11.0272 19.8593 10.7289C19.5611 10.4307 19.207 10.1941 18.8173 10.0327C18.4277 9.87132 18.01 9.78824 17.5882 9.78824V7.64706Z" stroke="#89929B" stroke-width="8" stroke-linecap="square" stroke-dasharray="8 16 24 32" mask="url(#path-3-inside-1_21_116)"/>
<mask id="path-4-inside-2_21_116" fill="white">
<path d="M17.5882 3.05884C20.2248 3.05884 22.7533 4.10621 24.6177 5.97054C26.482 7.83487 27.5294 10.3634 27.5294 13C27.5294 15.6366 26.482 18.1651 24.6177 20.0295C22.7534 21.8938 20.2248 22.9412 17.5882 22.9412L17.5882 20.6631C19.6206 20.6631 21.5697 19.8557 23.0068 18.4186C24.4439 16.9815 25.2513 15.0324 25.2513 13C25.2513 10.9676 24.4439 9.01851 23.0068 7.58141C21.5697 6.14431 19.6206 5.33696 17.5882 5.33696V3.05884Z"/>
</mask>
<path d="M17.5882 3.05884C20.2248 3.05884 22.7533 4.10621 24.6177 5.97054C26.482 7.83487 27.5294 10.3634 27.5294 13C27.5294 15.6366 26.482 18.1651 24.6177 20.0295C22.7534 21.8938 20.2248 22.9412 17.5882 22.9412L17.5882 20.6631C19.6206 20.6631 21.5697 19.8557 23.0068 18.4186C24.4439 16.9815 25.2513 15.0324 25.2513 13C25.2513 10.9676 24.4439 9.01851 23.0068 7.58141C21.5697 6.14431 19.6206 5.33696 17.5882 5.33696V3.05884Z" stroke="#89929B" stroke-width="8" mask="url(#path-4-inside-2_21_116)"/>
</svg>
